Coordinates
version=1
nRows=21
nColumns=33
inDegrees=yes

Units are S.I. units (second, meters, Newtons, ...)
Angles are in degrees.

endheader
time	ground_thorax_rot_x	ground_thorax_rot_y	ground_thorax_rot_z	ground_thorax_tx	ground_thorax_ty	ground_thorax_tz	clav_prot_r	clav_elev_r	scapula_abduction_r	scapula_elevation_r	scapula_upward_rot_r	scapula_winging_r	shoulder_elv_r	plane_of_elev_r	axial_rot_r	elbow_flexion_r	pro_sup_r	wrist_flex_r	wrist_dev_r	clav_prot_l	clav_elev_l	scapula_abduction_l	scapula_elevation_l	scapula_upward_rot_l	scapula_winging_l	shoulder_elv_l	plane_of_elev_l	axial_rot_l	elbow_flexion_l	pro_sup_l	wrist_flex_l	wrist_dev_l
      9.39000000	    -17.95516299	    -40.90971173	     62.40563678	     15.16139769	    758.29907668	    -34.03519175	     45.00000000	    -45.00000000	     39.68690358	    -45.00000000	    -45.00000000	  -1089.48127745	  -2264.66880499	    -90.00000000	     34.05913509	   1065.62968027	    132.44054926	     11.86808380	      8.58506656	     -3.64358579	     36.07534485	    -29.45532929	    -45.00000000	    -36.54241121	  -3502.45014380	  -2263.02168576	    141.52588621	    179.99999979	   1436.27987863	   -321.52657189	     13.40675449	    -18.76996945
      9.40000000	    -18.36688864	    -40.81378777	     61.78344724	     12.68175443	    758.62194703	    -34.15193928	     45.00000000	    -45.00000000	     39.73418697	    -45.00000000	    -45.00000000	  -1089.54311924	  -2264.63323145	    -90.00000000	     34.04739717	   1065.64639396	    132.41996864	     11.86452943	      8.60185837	     -3.60879226	     36.11191497	    -29.54109869	    -45.00000000	    -36.39186406	  -3502.38239760	  -2262.97599250	    141.54610913	    179.99999979	   1436.31762440	   -321.36764866	     13.39683129	    -18.82477730
      9.41000000	    -18.76423073	    -40.72024889	     61.18039483	     10.17369799	    758.99633103	    -34.24822941	     45.00000000	    -45.00000000	     39.79075527	    -45.00000000	    -45.00000000	  -1089.61804897	  -2264.59245580	    -90.00000000	     34.03117464	   1065.64822231	    132.37702557	     11.87220313	      8.61467550	     -3.57647037	     36.14370684	    -29.61986789	    -45.00000000	    -36.24903447	  -3502.30897091	  -2262.92893628	    141.55947692	    179.99999979	   1436.36217384	   -321.17687041	     13.39329173	    -18.89327463
      9.42000000	    -19.15089240	    -40.60264225	     60.58483425	      7.64089656	    759.42335253	    -34.32622754	     45.00000000	    -45.00000000	     39.85185662	    -45.00000000	    -45.00000000	  -1089.68546295	  -2264.54653996	    -90.00000000	     34.01067516	   1065.63516168	    132.30826325	     11.89612284	      8.61777361	     -3.55167223	     36.17834007	    -29.70127578	    -45.00000000	    -36.08964625	  -3502.23031239	  -2262.87758138	    141.56445061	    179.99999979	   1436.41403271	   -320.95668702	     13.39641262	    -18.97682729
      9.43000000	    -19.66220684	    -40.44213494	     59.81613003	      5.08954915	    759.90441507	    -34.38808896	     45.00000000	    -45.00000000	     39.71309063	    -45.00000000	    -45.00000000	  -1089.61379393	  -2264.45104800	    -90.00000000	     33.93865639	   1065.75090620	    132.21634483	     11.84253897	      8.60918663	     -3.50510205	     36.27387170	    -29.83052429	    -45.00000000	    -35.62669602	  -3502.12561995	  -2262.92262071	    141.65146987	    179.99999979	   1436.43012787	   -320.71886984	     13.37836558	    -19.03934420
      9.44000000	    -20.05992466	    -40.39785192	     59.24726948	      2.51246663	    760.44395651	    -34.43626329	     45.00000000	    -45.00000000	     39.83985901	    -45.00000000	    -45.00000000	  -1089.70132736	  -2264.40401088	    -90.00000000	     33.91597868	   1065.65035950	    132.12536720	     11.84300380	      8.65456108	     -3.48673990	     36.32133820	    -29.90129430	    -45.00000000	    -35.53153148	  -3502.07506028	  -2262.80614383	    141.70067028	    179.99999979	   1436.47264916	   -320.45958215	     13.34748706	    -19.10559451
      9.45000000	    -20.45914748	    -40.25307285	     58.63177938	     -0.06706338	    761.04091152	    -34.47226505	     45.00000000	    -45.00000000	     39.86964395	    -45.00000000	    -45.00000000	  -1089.75226687	  -2264.31548661	    -90.00000000	     33.85199777	   1065.66244261	    131.98811343	     11.87215705	      8.64128760	     -3.49561924	     36.35161510	    -30.00825801	    -45.00000000	    -35.29472548	  -3501.95478798	  -2262.76989313	    141.69786090	    179.99999979	   1436.51888336	   -320.20798181	     13.36343779	    -19.20920926
      9.46000000	    -20.81106563	    -40.15912254	     58.10577259	     -2.65691188	    761.70103821	    -34.49825437	     45.00000000	    -45.00000000	     39.95334196	    -45.00000000	    -45.00000000	  -1089.83814272	  -2264.24596923	    -90.00000000	     33.80840105	   1065.59536307	    131.81446573	     11.90931020	      8.64649855	     -3.51435694	     36.37553872	    -30.08308057	    -45.00000000	    -35.19207436	  -3501.86119395	  -2262.68660225	    141.70969832	    179.99999979	   1436.58105847	   -319.95657304	     13.37054483	    -19.31381096
      9.47000000	    -21.21214247	    -40.05908973	     57.51393574	     -5.24957254	    762.42714632	    -34.51619192	     45.00000000	    -45.00000000	     39.97138458	    -45.00000000	    -45.00000000	  -1089.88030689	  -2264.14430875	    -90.00000000	     33.73304118	   1065.57654612	    131.62732826	     11.93287688	      8.63679138	     -3.52944369	     36.41638471	    -30.17483464	    -45.00000000	    -34.97411043	  -3501.74453252	  -2262.63983540	    141.73411912	    179.99999979	   1436.61490778	   -319.72980342	     13.38892941	    -19.41140956
      9.48000000	    -22.58276626	    -39.53247675	     55.68844244	     -7.83857533	    763.22157030	    -34.52838868	     45.00000000	    -45.00000000	     39.14606608	    -45.00000000	    -45.00000000	  -1089.40687769	  -2263.82389528	    -90.00000000	     33.42956519	   1065.51700214	    131.49188688	     12.09856877	      8.55240456	     -3.51533943	     36.48668506	    -30.79131694	    -45.00000000	    -33.65780378	  -3501.21157456	  -2262.83599222	    141.61905857	    179.99999979	   1436.53860897	   -319.55007007	     13.50275470	    -19.53872917
      9.49000000	    -21.88592637	    -39.80937782	     56.53562919	    -10.43961640	    764.09303261	    -34.53808195	     45.00000000	    -45.00000000	     40.10146409	    -45.00000000	    -45.00000000	  -1090.06093274	  -2263.98275971	    -90.00000000	     33.61613415	   1065.53729011	    131.26568191	     11.95431248	      8.63058028	     -3.65260738	     36.46557956	    -30.37889610	    -45.00000000	    -34.75502904	  -3501.49368079	  -2262.50931243	    141.71240231	    179.99999979	   1436.72533144	   -319.35942343	     13.39851397	    -19.58804419
      9.50000000	    -22.55709946	    -39.54040696	     55.60495571	    -13.00576835	    765.02804078	    -34.54756270	     45.00000000	    -45.00000000	     39.87133958	    -45.00000000	    -45.00000000	  -1089.90597255	  -2263.77622177	    -90.00000000	     33.43331069	   1065.53257597	    131.09558697	     11.89183124	      8.65014436	     -3.41020034	     36.67430553	    -30.58849221	    -45.00000000	    -34.03843849	  -3501.43368641	  -2262.49879648	    141.89588486	    179.99999979	   1436.71865996	   -319.22750490	     13.34603576	    -19.59528611
      9.51000000	    -22.92926015	    -39.40367882	     55.05602551	    -15.58153855	    766.04307876	    -34.56003433	     45.00000000	    -45.00000000	     39.92741202	    -45.00000000	    -45.00000000	  -1089.96064642	  -2263.63587496	    -90.00000000	     33.31716259	   1065.41504479	    130.92566217	     11.89500186	      8.69870951	     -3.41907071	     36.72537022	    -30.68797652	    -45.00000000	    -33.88554656	  -3501.33345897	  -2262.42436437	    141.92122599	    179.99999979	   1436.75365319	   -319.11857495	     13.37111859	    -19.67574938
      9.52000000	    -23.24371695	    -39.30501540	     54.58265626	    -18.15775949	    767.13477167	    -34.57797135	     45.00000000	    -45.00000000	     40.03368318	    -45.00000000	    -45.00000000	  -1090.04671232	  -2263.50674803	    -90.00000000	     33.21386080	   1065.28657699	    130.74150383	     11.92102871	      8.74032776	     -3.48759834	     36.74405167	    -30.75798719	    -45.00000000	    -33.82156685	  -3501.22493035	  -2262.32644240	    141.91232659	    179.99999979	   1436.77783976	   -319.04176214	     13.43755404	    -19.77431419
      9.53000000	    -23.62925009	    -39.16081831	     54.03506790	    -20.73189179	    768.30243675	    -34.60349275	     45.00000000	    -45.00000000	     40.01272053	    -45.00000000	    -45.00000000	  -1090.06216924	  -2263.33623280	    -90.00000000	     33.06880152	   1065.22215024	    130.53450311	     11.91331700	      8.77215899	     -3.47025676	     36.82276719	    -30.87472482	    -45.00000000	    -33.57087029	  -3501.11093449	  -2262.26406106	    141.96188250	    179.99999979	   1436.77800837	   -319.00295707	     13.46955085	    -19.82711559
      9.54000000	    -24.01549518	    -38.99942323	     53.48155873	    -23.30647981	    769.54634175	    -34.63858975	     45.00000000	    -45.00000000	     39.99900465	    -45.00000000	    -45.00000000	  -1090.10217684	  -2263.14445005	    -90.00000000	     32.90267752	   1065.14482963	    130.33149856	     11.92453509	      8.80566958	     -3.47697236	     36.89695175	    -30.98266331	    -45.00000000	    -33.35591600	  -3501.01439965	  -2262.20463825	    142.00636625	    179.99999979	   1436.80783845	   -318.99603291	     13.51664867	    -19.89959026
      9.55000000	    -24.39772377	    -38.79667037	     52.93536268	    -25.87799460	    770.86625356	    -34.68500402	     45.00000000	    -45.00000000	     40.01955808	    -45.00000000	    -45.00000000	  -1090.13484282	  -2262.96061759	    -90.00000000	     32.74452351	   1065.01996728	    130.11127103	     11.94808073	      8.85819731	     -3.47533603	     36.99033208	    -31.10116145	    -45.00000000	    -33.11162396	  -3500.92243032	  -2262.13126456	    142.03828018	    179.99999979	   1436.83128279	   -319.02598920	     13.57348495	    -19.96562467
      9.56000000	    -24.75463205	    -38.62406216	     52.43020300	    -28.44349820	    772.26123941	    -34.74427445	     45.00000000	    -45.00000000	     40.01379698	    -45.00000000	    -45.00000000	  -1090.16396318	  -2262.75345933	    -90.00000000	     32.56310189	   1064.91920372	    129.86356382	     11.95775854	      8.91230456	     -3.48565381	     37.04005621	    -31.22393408	    -45.00000000	    -32.91903006	  -3500.81209883	  -2262.05015752	    142.07146081	    179.99999979	   1436.84368910	   -319.09371566	     13.63653573	    -20.02074751
      9.57000000	    -25.19923269	    -38.48171131	     51.81960308	    -30.99705469	    773.73016645	    -34.81777820	     45.00000000	    -45.00000000	     39.97099645	    -45.00000000	    -45.00000000	  -1090.17697160	  -2262.54559442	    -90.00000000	     32.38047832	   1064.72887812	    129.60800602	     11.99126081	      8.98531179	     -3.46821088	     37.11374657	    -31.35173976	    -45.00000000	    -32.65421891	  -3500.69385959	  -2261.96722746	    142.12768429	    179.99999979	   1436.83115126	   -319.18728803	     13.68890052	    -20.04996541
      9.58000000	    -25.50348496	    -38.28894411	     51.34160168	    -33.52983301	    775.26736784	    -34.90627835	     45.00000000	    -45.00000000	     39.97883285	    -45.00000000	    -45.00000000	  -1090.20493450	  -2262.28513213	    -90.00000000	     32.14596114	   1064.63798204	    129.31220364	     12.04145628	      9.02373610	     -3.50277624	     37.18847698	    -31.46890441	    -45.00000000	    -32.46497577	  -3500.57288940	  -2261.91605065	    142.14420873	    179.99999979	   1436.83910073	   -319.30881045	     13.80017873	    -20.12590921
      9.59000000	    -25.92930174	    -38.10466577	     50.77635020	    -36.03370823	    776.86620568	    -35.00978300	     45.00000000	    -45.00000000	     39.94215419	    -45.00000000	    -45.00000000	  -1090.21215679	  -2262.07419518	    -90.00000000	     31.96005851	   1064.43116102	    129.03111221	     12.06505941	      9.09977238	     -3.45946476	     37.27731050	    -31.59449171	    -45.00000000	    -32.17970668	  -3500.47570728	  -2261.82075933	    142.20221631	    179.99999979	   1436.83329990	   -319.44593416	     13.85266815	    -20.14475725
